<svg width="40" height="32" viewBox="0 0 40 32" fill="none" xmlns="http://www.w3.org/2000/svg">
<path d="M4 16C4 7.1625 11.1625 0 20 0C28.8375 0 36 7.1625 36 16C36 24.8375 28.8375 32 20 32C11.1625 32 4 24.8375 4 16ZM27.2375 13.2375C27.9187 12.5563 27.9187 11.4437 27.2375 10.7625C26.5562 10.0813 25.4438 10.0813 24.7625 10.7625L18 17.525L15.2375 14.7625C14.5563 14.0813 13.4437 14.0813 12.7625 14.7625C12.0813 15.4437 12.0813 16.5562 12.7625 17.2375L16.7625 21.2375C17.4437 21.9187 18.5563 21.9187 19.2375 21.2375L27.2375 13.2375Z" fill="#ED9F3A"/>
<path d="M27.2375 10.7625C27.9187 11.4437 27.9187 12.5562 27.2375 13.2375L19.2375 21.2375C18.5563 21.9187 17.4437 21.9187 16.7625 21.2375L12.7625 17.2375C12.0812 16.5562 12.0812 15.4437 12.7625 14.7625C13.4437 14.0812 14.5563 14.0812 15.2375 14.7625L18 17.525L24.7625 10.7625C25.4438 10.0812 26.5562 10.0812 27.2375 10.7625Z" fill="#2D3134"/>
</svg>
