<svg width="33" height="24" viewBox="0 0 27 24" fill="none" xmlns="http://www.w3.org/2000/svg">
    <path d="M0 1.125C0 0.503906 0.503906 0 1.125 0H4.5C5.03906 0 5.50312 0.383906 5.60625 0.914531L5.67656 1.5H25.3969C26.3484 1.5 27.1078 2.44922 26.8406 3.40594L25.2 9.22969C24.5766 9.07969 23.9203 9 23.25 9C20.0438 9 17.2641 10.8281 15.9 13.5H8.00156L8.43281 15.75H15.1359C15.0047 16.2375 14.9578 16.7391 14.9578 17.25C14.9578 17.5031 15.0094 17.7516 15.0328 18H7.45781C6.96094 18 6.49687 17.6156 6.39375 17.0859L3.56906 2.25H1.125C0.503906 2.25 0 1.74656 0 1.125ZM10.5 21.75C10.5 22.9922 9.49219 24 8.25 24C7.00781 24 6 22.9922 6 21.75C6 20.5078 7.00781 19.5 8.25 19.5C9.49219 19.5 10.5 20.5078 10.5 21.75Z" fill="#2D3134" />
    <path transform="translate(16,10)" d="M7.25 14C3.52344 14 0.5 10.9766 0.5 7.25C0.5 3.52344 3.52344 0.5 7.25 0.5C10.9766 0.5 14 3.52344 14 7.25C14 10.9766 10.9766 14 7.25 14ZM10.25 6.5H8V4.25C8 3.8375 7.6625 3.5 7.25 3.5C6.8375 3.5 6.5 3.8375 6.5 4.25V6.5H4.25C3.8375 6.5 3.5 6.8375 3.5 7.25C3.5 7.6625 3.8375 8 4.25 8H6.5V10.25C6.5 10.6625 6.8375 11 7.25 11C7.6625 11 8 10.6625 8 10.25V8H10.25C10.6625 8 11 7.6625 11 7.25C11 6.8375 10.6625 6.5 10.25 6.5Z" fill="#2D3134" />
</svg>