<svg width="80" height="72" viewBox="0 0 80 72" fill="none" xmlns="http://www.w3.org/2000/svg">
<path fill-rule="evenodd" clip-rule="evenodd" d="M31.1649 0.0874974C30.6828 0.146823 29.1749 0.426535 27.8138 0.709105C15.6348 3.23705 5.87102 11.827 1.79088 23.6037C0.352126 27.7566 0.00277027 29.9975 1.32077e-05 35.0915C-0.00274385 40.0619 0.425509 42.7408 1.88232 46.8647C2.61484 48.9379 2.61511 48.9415 2.61511 54.9769C2.61511 61.6976 2.66189 61.9289 4.274 63.1579C6.10492 64.5529 9.06284 63.841 10.05 61.7665L10.5038 60.8138L12.6326 62.6242C19.1702 68.1835 26.1672 70.9991 35.297 71.7461C43.6827 72.4324 52.4624 71.7034 58.1356 69.8503C60.8447 68.9656 65.8007 66.4964 67.6036 65.1338C69.8255 63.454 72.984 60.2302 74.5871 58.0049C76.7571 54.9944 80 48.5194 80 47.1986C80 46.9457 79.7207 46.5556 79.379 46.3324C78.8086 45.9584 78.6635 45.958 77.5815 46.3261C74.3765 47.4173 71.6588 46.1798 70.5076 43.1051C69.7722 41.1421 69.5092 39.3073 69.2325 34.2156C68.8877 27.8637 68.1031 24.5281 65.8486 19.8275C61.1137 9.95538 52.0493 2.86044 41.3702 0.668015C38.8881 0.158249 33.2134 -0.164528 31.1649 0.0874974ZM39.0055 2.95954C51.1783 4.80239 61.1372 13.2234 65.0481 24.9823C66.0185 27.8991 66.4457 30.6572 66.7119 35.717C66.9718 40.6453 67.3428 42.69 68.3729 44.8658C69.6633 47.591 72.4271 49.4797 75.1259 49.4797C75.7406 49.4797 76.2436 49.5382 76.2436 49.6102C76.2436 49.6817 75.8025 50.611 75.2637 51.6743C72.4226 57.28 68.5216 61.6108 63.7098 64.5002C60.0714 66.6854 55.4459 68.1632 50.0226 68.8733C46.6784 69.3116 38.3709 69.3715 34.2953 68.9872C18.8942 67.5355 6.52566 56.7737 3.24593 41.9726C2.59057 39.0149 2.45881 32.8177 2.98419 29.6765C4.13827 22.7802 7.37212 16.6718 12.4628 11.7734C17.3803 7.04141 22.7822 4.28207 29.537 3.05138C31.7434 2.64951 36.6434 2.60182 39.0055 2.95954ZM32.2919 5.35522C30.3131 5.59538 29.8891 5.74325 29.5062 6.32686C29.1351 6.89287 29.1368 6.99106 29.5262 7.58501C29.9483 8.22856 29.9522 8.22923 32.4977 8.05544C35.2342 7.86887 35.9232 7.56436 35.9232 6.54088C35.9232 5.43014 34.7724 5.05417 32.2919 5.35522ZM22.515 7.90843C15.7813 11.0991 10.6551 16.3861 7.72146 23.1658C6.79111 25.3156 6.77637 26.0053 7.65014 26.4724C8.6048 26.9831 9.09063 26.5105 10.3455 23.8524C11.9331 20.4893 13.2734 18.5371 15.7435 15.9887C18.0405 13.6189 20.8436 11.6493 23.9803 10.2015C26.4081 9.08067 26.9157 8.4986 26.2934 7.54964C25.7347 6.69752 24.904 6.77663 22.515 7.90843ZM10.003 32.4365C8.00652 33.3572 6.80087 35.414 6.66139 38.1377C6.45728 42.1181 8.73854 45.2258 11.8645 45.2258C13.33 45.2258 14.4011 44.7036 15.4515 43.4775C16.5957 42.142 17.1404 40.5668 17.1404 38.5945C17.1404 33.9168 13.5361 30.8072 10.003 32.4365ZM34.0271 32.4371C31.7749 33.4593 30.527 36.0046 30.7173 39.1885C30.8505 41.4156 31.4355 42.7504 32.8057 43.9526C33.9184 44.9284 34.6459 45.2258 35.9232 45.2258C37.2004 45.2258 37.9279 44.9284 39.0406 43.9526C40.3689 42.7871 40.9907 41.4079 41.127 39.3255C41.3944 35.2347 39.0864 31.9746 35.9232 31.9746C35.441 31.9746 34.5878 32.1827 34.0271 32.4371ZM13.2193 35.2303C14.0733 35.9016 14.7021 37.9767 14.487 39.4146C14.2927 40.712 13.4796 41.9827 12.5607 42.4244C10.6233 43.3551 8.67838 40.2183 9.40521 37.3346C9.97994 35.0545 11.7517 34.077 13.2193 35.2303ZM37.4133 35.416C38.2151 36.2171 38.7568 38.241 38.5124 39.5242C37.6499 44.0558 33.3321 43.2811 33.3321 38.5945C33.3321 35.3738 35.6018 33.6061 37.4133 35.416ZM41.5723 51.2869C41.2575 51.7355 41.1826 52.6387 41.1838 55.9786C41.1854 60.7229 41.4029 61.793 42.5953 62.9162C44.1654 64.3958 46.334 64.327 48.0339 62.7434L49.0712 61.7777L49.1507 57.8978L49.2312 54.0179L48.5876 53.5967C47.9901 53.2057 47.8992 53.2048 47.318 53.585C46.7064 53.9855 46.692 54.067 46.692 57.0617C46.692 59.4319 46.6034 60.254 46.3019 60.6838C45.8016 61.3979 44.5627 61.4402 44.1962 60.7562C44.0466 60.4763 43.9372 58.4621 43.9372 55.9853C43.9372 53.509 43.8278 51.4943 43.6777 51.2144C43.3116 50.5304 42.0728 50.5727 41.5723 51.2869ZM7.87427 59.1106C7.87427 60.6055 7.46279 61.24 6.49312 61.24C5.38392 61.24 5.11947 60.4295 5.11947 57.0293V53.9311L6.49687 55.849C7.75707 57.604 7.87427 57.8821 7.87427 59.1106ZM15.7749 47.3494C15.3255 47.5199 15.2551 47.8732 15.527 48.5932C16.2291 50.4526 17.8514 52.1581 19.803 53.0887C22.0387 54.1547 24.9826 54.1691 27.4359 53.1265C27.5602 53.0738 27.8178 53.2457 28.3504 53.7362C29.2933 54.6052 29.9371 54.8986 30.9029 54.8999C31.7864 54.9013 32.4396 54.6583 33.017 54.1129C33.6069 53.5553 33.8416 53.0365 33.892 52.177C33.9462 51.2518 33.6588 50.6128 32.8172 49.7893L32.6569 49.6327C31.9814 48.9721 31.7944 48.7894 31.7878 48.6004C31.7848 48.514 31.8195 48.4262 31.8624 48.2908C32.0151 47.8093 31.8842 47.4911 31.4725 47.3435C31 47.1739 30.7208 47.398 30.3416 48.2516C29.8716 49.3087 29.3898 49.9657 28.522 50.7325C25.77 53.1638 21.4844 53.1638 18.7545 50.7325C17.8895 49.9621 17.3567 49.2326 16.9203 48.2206C16.6933 47.6941 16.5194 47.4403 16.3306 47.3588C16.2501 47.3246 16.1747 47.294 16.1209 47.2742C16.0762 47.258 16.0465 47.2486 16.041 47.2504C16.0289 47.2535 15.9092 47.2985 15.7749 47.3494ZM31.6693 50.597C32.515 51.4507 32.6884 52.0069 32.3307 52.7188C32.0047 53.3677 31.3187 53.6732 30.5107 53.5301C30.1573 53.4676 28.9388 52.5491 28.9388 52.3453C28.9388 52.2989 29.235 51.9943 29.5971 51.668C29.9591 51.3418 30.4255 50.8562 30.6334 50.5889C30.7382 50.4539 30.8429 50.3315 30.927 50.2433C31.0098 50.1565 31.0725 50.1025 31.0955 50.1025C31.1417 50.1025 31.4 50.3248 31.6693 50.597Z" fill="#60D6D4"/>
</svg>
