<svg width="32" height="32" viewBox="0 0 32 32" fill="none" xmlns="http://www.w3.org/2000/svg">
<path d="M28.3999 24.3784C28.3999 25.4439 28.8476 26.3076 29.3999 26.3076C29.9522 26.3076 30.3999 25.4439 30.3999 24.3784C30.3999 23.3129 29.9522 22.4492 29.3999 22.4492C28.8476 22.4492 28.3999 23.3129 28.3999 24.3784Z" fill="#DCF0F0"/>
<path d="M4.9999 16.6618C4.9999 19.664 3.5999 20.906 0.599898 20.5202C5.3999 29.3944 12.3306 29.2015 16.5999 29.2015C23.8901 29.2015 31.3999 22.7494 31.3999 15.5043C31.3999 8.25922 25.4901 2.77173 18.1999 2.77173C10.9097 2.77173 4.7999 8.75219 4.9999 16.6618Z" fill="#DCF0F0"/>
<path d="M26 16.8547C26 17.8136 26.6269 18.5909 27.4 18.5909C28.1732 18.5909 28.8 17.8136 28.8 16.8547C28.8 15.8958 28.1732 15.1184 27.4 15.1184C26.6269 15.1184 26 15.8958 26 16.8547Z" fill="#FFFCDF"/>
<path d="M16.4 16.8547C16.4 17.8136 17.0268 18.5909 17.8 18.5909C18.5731 18.5909 19.2 17.8136 19.2 16.8547C19.2 15.8958 18.5731 15.1184 17.8 15.1184C17.0268 15.1184 16.4 15.8958 16.4 16.8547Z" fill="#FFFCDF"/>
<path d="M18.7999 22.0634C18.7999 22.4896 19.1581 22.8351 19.5999 22.8351C20.0417 22.8351 20.3999 22.4896 20.3999 22.0634C20.3999 21.6372 20.0417 21.2917 19.5999 21.2917C19.1581 21.2917 18.7999 21.6372 18.7999 22.0634Z" fill="#FFBBBB"/>
<path fill-rule="evenodd" clip-rule="evenodd" d="M19.534 2.03376C19.7269 2.05665 20.33 2.16457 20.8745 2.2736C25.7461 3.24897 29.6516 6.5633 31.2836 11.1072C31.8591 12.7095 31.9989 13.5741 32 15.5396C32.0011 17.4573 31.8298 18.4909 31.2471 20.0821C30.9541 20.882 30.954 20.8834 30.954 23.2121C30.954 25.8052 30.9352 25.8944 30.2904 26.3686C29.558 26.9068 28.3749 26.6322 27.98 25.8318L27.7985 25.4642L26.947 26.1627C24.3319 28.3077 21.5331 29.394 17.8812 29.6823C14.5269 29.947 11.015 29.6658 8.74576 28.9508C7.6621 28.6094 5.67973 27.6567 4.95855 27.131C4.06978 26.4829 2.80642 25.239 2.16515 24.3804C1.29717 23.2189 -3.01895e-07 20.7205 -3.01895e-07 20.211C-3.01895e-07 20.1134 0.111727 19.9628 0.248405 19.8767C0.476563 19.7324 0.534598 19.7323 0.967412 19.8743C2.2494 20.2953 3.3365 19.8179 3.79697 18.6315C4.09112 17.8741 4.19634 17.1662 4.30698 15.2016C4.44493 12.7508 4.75878 11.4638 5.66056 9.65016C7.55453 5.84115 11.1803 3.10366 15.4519 2.25774C16.4448 2.06106 18.7146 1.93652 19.534 2.03376ZM16.3978 3.1419C11.5287 3.85294 7.54513 7.10207 5.98074 11.6391C5.59259 12.7645 5.42174 13.8286 5.31525 15.7809C5.2113 17.6824 5.06287 18.4714 4.65085 19.3108C4.13469 20.3624 3.02915 21.0911 1.94965 21.0911C1.70377 21.0911 1.50255 21.1136 1.50255 21.1414C1.50255 21.169 1.67901 21.5276 1.89451 21.9378C3.03096 24.1007 4.59137 25.7717 6.51607 26.8865C7.97143 27.7297 9.82165 28.2999 11.991 28.5738C13.3286 28.7429 16.6516 28.766 18.2819 28.6178C24.4423 28.0576 29.3897 23.9054 30.7016 18.1946C30.9638 17.0534 31.0165 14.6623 30.8063 13.4503C30.3447 10.7894 29.0512 8.43257 27.0149 6.54262C25.0479 4.71683 22.8871 3.65218 20.1852 3.17733C19.3026 3.02228 17.3426 3.00388 16.3978 3.1419ZM19.0833 4.06624C19.8748 4.1589 20.0444 4.21596 20.1975 4.44113C20.346 4.65952 20.3453 4.6974 20.1895 4.92657C20.0207 5.17488 20.0191 5.17514 19.0009 5.10808C17.9063 5.0361 17.6307 4.9186 17.6307 4.52371C17.6307 4.09515 18.091 3.95008 19.0833 4.06624ZM22.994 5.05136C25.6875 6.28244 27.738 8.32237 28.9114 10.9382C29.2836 11.7677 29.2895 12.0338 28.9399 12.214C28.5581 12.4111 28.3637 12.2287 27.8618 11.2031C27.2268 9.90551 26.6906 9.15227 25.7026 8.16901C24.7838 7.25467 23.6625 6.49471 22.4079 5.93611C21.4368 5.50365 21.2337 5.27907 21.4826 4.91293C21.7061 4.58415 22.0384 4.61467 22.994 5.05136ZM27.9988 14.5152C28.7974 14.8704 29.2797 15.664 29.3354 16.7149C29.4171 18.2507 28.5046 19.4498 27.2542 19.4498C26.668 19.4498 26.2396 19.2483 25.8194 18.7752C25.3617 18.2599 25.1438 17.6521 25.1438 16.8912C25.1438 15.0863 26.5856 13.8866 27.9988 14.5152ZM18.3892 14.5154C19.29 14.9098 19.7892 15.8919 19.7131 17.1203C19.6598 17.9797 19.4258 18.4947 18.8777 18.9585C18.4326 19.335 18.1416 19.4498 17.6307 19.4498C17.1199 19.4498 16.8289 19.335 16.3838 18.9585C15.8524 18.5088 15.6037 17.9767 15.5492 17.1732C15.4422 15.5948 16.3654 14.337 17.6307 14.337C17.8236 14.337 18.1649 14.4173 18.3892 14.5154ZM26.7123 15.5931C26.3707 15.8521 26.1192 16.6528 26.2052 17.2076C26.2829 17.7082 26.6082 18.1985 26.9757 18.3689C27.7507 18.728 28.5286 17.5177 28.2379 16.4051C28.008 15.5253 27.2993 15.1481 26.7123 15.5931ZM17.0347 15.6648C16.7139 15.9739 16.4973 16.7548 16.595 17.2499C16.94 18.9983 18.6672 18.6994 18.6672 16.8912C18.6672 15.6485 17.7593 14.9665 17.0347 15.6648ZM15.3711 21.7883C15.497 21.9615 15.527 22.3099 15.5265 23.5986C15.5259 25.4291 15.4388 25.842 14.9619 26.2754C14.3338 26.8463 13.4664 26.8197 12.7864 26.2087L12.3715 25.8361L12.3397 24.3391L12.3075 22.8421L12.565 22.6796C12.804 22.5287 12.8403 22.5283 13.0728 22.6751C13.3174 22.8296 13.3232 22.861 13.3232 24.0165C13.3232 24.931 13.3586 25.2482 13.4792 25.414C13.6794 25.6896 14.1749 25.7059 14.3215 25.442C14.3814 25.334 14.4251 24.5568 14.4251 23.6012C14.4251 22.6457 14.4689 21.8684 14.5289 21.7604C14.6753 21.4965 15.1709 21.5128 15.3711 21.7883ZM28.8503 24.807C28.8503 25.3838 29.0149 25.6286 29.4028 25.6286C29.8464 25.6286 29.9522 25.3159 29.9522 24.004V22.8086L29.4013 23.5486C28.8972 24.2257 28.8503 24.333 28.8503 24.807ZM25.69 20.2691C25.8698 20.3349 25.898 20.4712 25.7892 20.749C25.5084 21.4664 24.8594 22.1245 24.0788 22.4835C23.1845 22.8949 22.007 22.9004 21.0256 22.4981C20.9759 22.4778 20.8729 22.5441 20.6598 22.7334C20.2827 23.0687 20.0252 23.1819 19.6388 23.1824C19.2854 23.1829 19.0242 23.0892 18.7932 22.8787C18.5572 22.6636 18.4634 22.4634 18.4432 22.1318C18.4215 21.7748 18.5365 21.5283 18.8731 21.2105L18.9372 21.1501C19.2074 20.8952 19.2822 20.8247 19.2849 20.7518C19.2861 20.7185 19.2722 20.6846 19.255 20.6323C19.194 20.4466 19.2463 20.3238 19.411 20.2669C19.6 20.2014 19.7117 20.2879 19.8634 20.6172C20.0514 21.0251 20.2441 21.2786 20.5912 21.5744C21.692 22.5125 23.4062 22.5125 24.4982 21.5744C24.8442 21.2772 25.0573 20.9957 25.2319 20.6053C25.3227 20.4021 25.3922 20.3042 25.4677 20.2728C25.4999 20.2596 25.5301 20.2478 25.5517 20.2401C25.5695 20.2339 25.5814 20.2302 25.5836 20.2309C25.5884 20.2321 25.6363 20.2495 25.69 20.2691ZM19.3323 21.5222C18.994 21.8515 18.9246 22.0662 19.0677 22.3408C19.1981 22.5912 19.4725 22.7091 19.7957 22.6539C19.9371 22.6297 20.4245 22.2754 20.4245 22.1967C20.4245 22.1788 20.306 22.0613 20.1612 21.9354C20.0164 21.8095 19.8298 21.6222 19.7466 21.5191C19.7047 21.467 19.6628 21.4197 19.6292 21.3857C19.5961 21.3522 19.571 21.3314 19.5618 21.3314C19.5433 21.3314 19.44 21.4171 19.3323 21.5222Z" fill="#39A9A7"/>
</svg>
