<svg width="40" height="32" viewBox="0 0 40 32" fill="none" xmlns="http://www.w3.org/2000/svg">
<circle cx="20" cy="16" r="16" fill="#ED9F3A"/>
<path fill-rule="evenodd" clip-rule="evenodd" d="M18.4 9.02501H21.6V10.075H18.4V9.02501V9.02501ZM17.35 10.125V9.02501C17.35 8.42501 17.85 7.97501 18.4 7.97501H21.6C22.2 7.97501 22.65 8.47501 22.65 9.02501V10.075H24.8C25.4 10.075 25.85 10.575 25.85 11.125C25.85 11.725 25.35 12.175 24.8 12.175H15.2C14.6 12.175 14.15 11.675 14.15 11.125C14.15 10.525 14.65 10.075 15.2 10.075H17.35V10.125ZM15.2 12.575V21.875C15.2 23.075 16.15 24.025 17.35 24.025H22.7C23.9 24.025 24.85 23.075 24.85 21.875V12.575H15.2ZM20 16.525C20.3 16.525 20.55 16.775 20.55 17.075V21.325C20.55 21.625 20.3 21.875 20 21.875C19.7 21.875 19.45 21.625 19.45 21.325V17.075C19.45 16.725 19.7 16.525 20 16.525ZM22.65 17.025C22.65 16.725 22.4 16.475 22.1 16.475C21.8 16.475 21.55 16.725 21.55 17.025V21.275C21.55 21.575 21.8 21.825 22.1 21.825C22.4 21.825 22.65 21.575 22.65 21.275V17.025ZM17.85 16.525C18.15 16.525 18.4 16.775 18.4 17.075V21.325C18.4 21.625 18.15 21.875 17.85 21.875C17.55 21.875 17.3 21.625 17.3 21.325V17.075C17.35 16.725 17.55 16.525 17.85 16.525Z" fill="#2D3134"/>
</svg>
