<?xml version="1.0" encoding="utf-8"?>
<!-- Generator: Adobe Illustrator 25.2.1, SVG Export Plug-In . SVG Version: 6.00 Build 0)  -->
<svg version="1.1" id="Слой_1" xmlns="http://www.w3.org/2000/svg" xmlns:xlink="http://www.w3.org/1999/xlink" x="0px" y="0px"
	 viewBox="0 0 32 32" style="enable-background:new 0 0 32 32;" xml:space="preserve">
<style type="text/css">
	.st0{fill-rule:evenodd;clip-rule:evenodd;}
</style>
<path class="st0" d="M12.8,2.1h6.4v2.1h-6.4V2.1z M10.7,4.3V2.1c0-1.2,1-2.1,2.1-2.1h6.4c1.2,0,2.1,1,2.1,2.1v2.1h4.3
	c1.2,0,2.1,1,2.1,2.1c0,1.2-1,2.1-2.1,2.1v0H6.4v0h0c-1.2,0-2.1-1-2.1-2.1c0-1.2,1-2.1,2.1-2.1H10.7z M6.4,9.2v18.6
	c0,2.4,1.9,4.3,4.3,4.3h10.7c2.4,0,4.3-1.9,4.3-4.3V9.2H6.4z M16,17.1c0.6,0,1.1,0.5,1.1,1.1v8.5c0,0.6-0.5,1.1-1.1,1.1
	c-0.6,0-1.1-0.5-1.1-1.1v-8.5C14.9,17.5,15.4,17.1,16,17.1z M21.3,18.1c0-0.6-0.5-1.1-1.1-1.1c-0.6,0-1.1,0.5-1.1,1.1v8.5
	c0,0.6,0.5,1.1,1.1,1.1c0.6,0,1.1-0.5,1.1-1.1V18.1z M11.7,17.1c0.6,0,1.1,0.5,1.1,1.1v8.5c0,0.6-0.5,1.1-1.1,1.1
	c-0.6,0-1.1-0.5-1.1-1.1v-8.5C10.7,17.5,11.1,17.1,11.7,17.1z"/>
</svg>
