<svg width="40" height="32" viewBox="0 0 40 32" fill="none" xmlns="http://www.w3.org/2000/svg">
<path fill-rule="evenodd" clip-rule="evenodd" d="M20 0C11.1625 0 4 7.1625 4 16C4 24.8375 11.1625 32 20 32C28.8375 32 36 24.8375 36 16C36 7.1625 28.8375 0 20 0ZM25.5 17.5H21.5H18.5H14.5C13.6687 17.5 13 16.8312 13 16C13 15.1687 13.6687 14.5 14.5 14.5H18.5H21.5H25.5C26.3312 14.5 27 15.1687 27 16C27 16.8312 26.3312 17.5 25.5 17.5Z" fill="#ED9F3A"/>
<path d="M13 16C13 16.8312 13.6687 17.5 14.5 17.5H18.5H21.5H25.5C26.3313 17.5 27 16.8312 27 16C27 15.1687 26.3313 14.5 25.5 14.5H21.5H18.5H14.5C13.6687 14.5 13 15.1687 13 16Z" fill="#2D3134"/>
</svg>
