<svg width="40" height="32" viewBox="0 0 40 32" fill="none" xmlns="http://www.w3.org/2000/svg">
<path d="M4 16C4 7.1625 11.1625 0 20 0C28.8375 0 36 7.1625 36 16C36 24.8375 28.8375 32 20 32C11.1625 32 4 24.8375 4 16ZM20 23C20.8312 23 21.5 22.3312 21.5 21.5V17.5H25.5C26.3312 17.5 27 16.8312 27 16C27 15.1687 26.3312 14.5 25.5 14.5H21.5V10.5C21.5 9.66875 20.8312 9 20 9C19.1687 9 18.5 9.66875 18.5 10.5V14.5H14.5C13.6687 14.5 13 15.1687 13 16C13 16.8312 13.6687 17.5 14.5 17.5H18.5V21.5C18.5 22.3312 19.1687 23 20 23Z" fill="#ED9F3A"/>
<path d="M14.5 17.5C13.6687 17.5 13 16.8313 13 16C13 15.1687 13.6687 14.5 14.5 14.5H18.5V10.5C18.5 9.66875 19.1687 9 20 9C20.8313 9 21.5 9.66875 21.5 10.5V14.5H25.5C26.3313 14.5 27 15.1687 27 16C27 16.8313 26.3313 17.5 25.5 17.5H21.5V21.5C21.5 22.3313 20.8313 23 20 23C19.1687 23 18.5 22.3313 18.5 21.5V17.5H14.5Z" fill="#2D3134"/>
</svg>
